<svg width="93" height="72" viewBox="0 0 93 115" fill="none" xmlns="http://www.w3.org/2000/svg">
<path d="M46.0422 108.613C42.9399 108.915 39.6867 109.334 37.1713 111.195C36.8024 111.464 36.4503 111.799 36.3832 112.252C36.2658 113.241 37.6073 113.644 38.6134 113.677C56.6739 114.247 74.7343 114.298 92.7948 113.845C93.0296 112.604 91.6378 111.732 90.4639 111.313C76.5287 106.232 60.5308 107.204 46.0422 108.613Z" fill="url(#paint0_linear_1_1264)"/>
<path d="M46.0388 108.613C42.9364 108.915 39.6833 109.334 37.1679 111.195C36.7989 111.464 36.4468 111.799 36.3798 112.252C36.2624 113.241 37.6038 113.644 38.61 113.677C56.6705 114.247 74.7309 114.298 92.7914 113.845C93.0261 112.604 91.6344 111.732 90.4605 111.313C76.5253 106.232 60.5274 107.204 46.0388 108.613Z" fill="url(#paint1_linear_1_1264)"/>
<path d="M36.0375 84.2608C34.9475 86.5246 35.4338 90.0964 35.9201 93.1987C36.289 95.5296 36.9263 98.0116 38.7709 99.4705C39.8106 100.292 41.1018 100.695 42.393 101.013C48.2958 102.439 54.5843 102.237 60.3697 100.443C61.5267 100.074 62.7005 99.6381 63.6564 98.9003C65.1824 97.7097 66.0041 95.8315 66.6078 93.9869C67.4295 91.4715 69.4586 85.8035 66.9432 84.4116C64.7296 83.1875 57.6195 84.6968 54.9699 84.68C52.9576 84.68 50.9453 84.6464 48.9665 84.1768C46.7027 83.657 44.4892 82.5671 42.2086 82.1478C38.687 81.4938 36.8927 82.4832 36.0375 84.2608Z" fill="#2F3F47"/>
<path d="M50.4307 104.286C50.4475 104.085 50.4642 103.884 50.481 103.666C48.737 102.475 45.6683 102.861 43.8237 103.465C41.8449 104.102 41.8448 105.343 41.8616 107.389C41.8784 108.546 41.979 109.87 42.8678 110.608C43.5553 111.195 44.5279 111.262 45.4167 111.329C46.2216 111.38 47.0265 111.43 47.8314 111.464C48.3848 111.497 49.0053 111.514 49.4413 111.145C49.8773 110.776 49.9444 110.139 49.9947 109.585C50.1457 107.825 50.2798 106.064 50.4307 104.286Z" fill="#2F3F47"/>
<path d="M52.0429 104.286C52.0262 104.085 52.0094 103.884 51.9927 103.666C53.7367 102.475 56.8054 102.861 58.65 103.465C60.6288 104.102 60.6288 105.343 60.612 107.389C60.5952 108.546 60.4946 109.87 59.6059 110.608C58.9183 111.195 57.9457 111.262 57.0569 111.329C56.252 111.38 55.4471 111.43 54.6421 111.464C54.0888 111.497 53.4684 111.514 53.0324 111.145C52.5964 110.776 52.5293 110.139 52.4789 109.585C52.328 107.825 52.1939 106.064 52.0429 104.286Z" fill="#2F3F47"/>
<path d="M9.79317 20.1866C9.84348 20.6058 9.89384 21.0418 9.74292 21.4443C9.62553 21.7629 9.3907 22.0144 9.15593 22.266C8.16655 23.2889 7.09335 24.2447 5.93627 25.0832C4.62827 24.8987 3.35379 24.5466 2.14641 24.01C1.92841 23.9094 1.69366 23.792 1.54274 23.5908C1.42536 23.4399 1.39184 23.2386 1.3583 23.0542C0.905534 20.9077 0.452769 18.7444 0 16.598C0.670769 16.1452 1.40858 15.7763 2.16319 15.4912C2.46504 16.7825 2.76685 18.0905 3.0687 19.3817C3.35377 20.6226 3.8234 22.0648 5.04755 22.4169C5.7854 21.7797 6.52316 21.1257 7.261 20.4884C7.39516 20.371 7.51256 20.2537 7.59641 20.1028C7.68025 19.9183 7.64673 19.7003 7.61319 19.4823C7.42873 18.2246 7.14364 16.9669 6.75795 15.7427C7.37841 15.6253 7.98216 15.508 8.60262 15.3906C9.37401 16.8495 9.59194 18.5432 9.79317 20.1866Z" fill="#2F3F47"/>
<path d="M4.05479 25.1191C4.03802 25.1862 4.05481 25.2533 4.07158 25.3203C4.25604 26.0917 4.44053 26.8631 4.62499 27.6345C5.83238 27.3494 7.02298 26.9638 8.18006 26.511C8.06268 25.8402 7.87819 25.1862 7.62665 24.5657C7.57634 24.4316 7.49244 24.2806 7.35828 24.2303C7.27444 24.1968 7.17387 24.2135 7.09002 24.2303C6.13417 24.398 5.19513 24.6328 4.28959 24.9347C4.18897 24.985 4.08833 25.0353 4.05479 25.1191Z" fill="#2F3F47"/>
<path d="M4.31071 28.371C4.19333 29.7964 6.15526 32.4292 6.75896 33.603C7.56388 35.1961 8.36883 36.8059 9.50913 38.1642C10.6494 39.5393 12.1587 40.6629 13.9027 41.0318C14.892 41.233 15.915 41.1827 16.9211 41.0486C19.9396 40.6629 22.8742 39.5729 25.4231 37.896C25.6243 37.7618 25.8423 37.6109 25.9262 37.3761C26.01 37.1414 25.9262 36.873 25.8423 36.6215C25.5237 35.6656 25.2051 34.6092 24.7188 33.7372C23.8636 32.1945 24.4002 32.4628 23.0251 32.5801C21.9687 32.664 20.4594 33.7708 19.3359 34.0558C18.0279 34.3745 16.6696 34.5421 15.3448 34.7098C14.5063 34.8104 13.5673 34.8943 12.863 34.4247C12.4773 34.1564 12.209 33.7707 11.9575 33.3682C10.4482 31.0206 9.07317 28.5891 7.86578 26.0905C7.66455 25.6545 4.57899 27.4655 4.37775 28.153C4.32745 28.2201 4.31071 28.2872 4.31071 28.371Z" fill="#CAB3DA"/>
<g opacity="0.15">
<path opacity="0.15" d="M16.9057 40.1249C16.2685 38.5821 15.9834 37.0393 15.8996 35.396C15.8828 35.0773 15.4468 35.027 15.3965 35.3624C15.1115 37.1232 15.3965 38.9174 16.017 40.5776C16.2182 41.1813 17.1405 40.7286 16.9057 40.1249Z" fill="#272525"/>
<path opacity="0.15" d="M14.0046 40.244C13.5686 38.6677 13.7364 37.41 14.2562 35.884C14.3233 35.6827 14.0214 35.5319 13.9208 35.7163C13.4513 36.4877 12.9314 37.1082 12.7805 38.0305C12.6296 38.9025 12.6631 39.7577 12.9817 40.5961C13.183 41.183 14.1723 40.8477 14.0046 40.244Z" fill="#272525"/>
</g>
<path d="M29.7028 26.8308C27.4222 27.9376 26.8688 30.9057 26.6676 33.4379C25.3596 48.9997 25.8627 64.7292 28.1433 80.1737C28.4284 82.0519 28.8309 84.0977 30.3066 85.2883C31.2624 86.0597 32.5201 86.328 33.7275 86.546C46.0193 88.7931 58.7136 88.8098 71.0055 86.5963C71.4079 86.5292 71.8439 86.4453 72.1793 86.177C72.6321 85.8249 72.7998 85.238 72.934 84.6846C77.3443 67.4291 76.3045 49.3183 75.181 31.5597C75.1474 30.9393 75.0972 30.302 74.8121 29.7654C74.4599 29.1114 73.8059 28.6753 73.1352 28.34C69.3118 26.3277 64.8344 26.16 60.5247 26.0929C51.2681 25.9252 42.0115 26.0091 32.7548 26.311C31.7152 26.3277 30.6251 26.378 29.7028 26.8308Z" fill="#553EA6"/>
<path d="M36.0919 21.8992C46.2038 23.9619 56.5336 23.7941 66.612 21.4129C68.7416 20.9098 71.039 20.172 72.4812 17.774C74.963 13.632 73.3532 6.60568 70.2342 3.53691C67.1151 0.46814 63.1407 0.250091 59.4012 0.132706C53.3978 -0.0517554 47.3608 -0.236184 41.4245 1.00474C37.9868 1.72582 34.3815 3.11763 32.0842 6.94101C29.7868 10.7644 29.6358 17.6734 32.5704 20.39C33.5934 21.3458 34.8678 21.6477 36.0919 21.8992Z" fill="#553EA6"/>
<path d="M38.6553 105.112C47.0232 105.766 55.5587 105.716 63.9098 104.961C65.6706 104.793 67.5655 104.558 68.7561 103.804C70.802 102.479 69.4771 100.249 66.8947 99.2762C64.3122 98.3035 61.0255 98.2365 57.9232 98.1862C52.9595 98.1191 47.9622 98.0688 43.0489 98.4713C40.2149 98.706 37.2132 99.142 35.3183 100.366C33.4233 101.59 33.2892 103.787 35.7207 104.642C36.5927 104.927 37.6324 105.028 38.6553 105.112Z" fill="#553EA6"/>
<path d="M41.81 16.8836C48.4841 17.7724 55.2757 17.7053 61.9331 16.6656C63.3417 16.4476 64.8509 16.129 65.79 15.0893C67.4334 13.295 66.3601 10.2597 64.3143 8.93495C62.2684 7.61018 59.6356 7.50955 57.1706 7.45925C53.213 7.3754 49.2387 7.29162 45.3147 7.84501C43.0509 8.16362 40.6697 8.75049 39.1604 10.4106C37.6512 12.0708 37.5506 15.0558 39.479 16.2128C40.1666 16.6488 41.0051 16.783 41.81 16.8836Z" fill="#2F3F47"/>
<path d="M43.2012 26.9971C42.3628 26.9971 41.3734 27.0977 40.9709 27.8355C40.7697 28.2044 40.7697 28.6404 40.7865 29.0596C41.0715 39.2218 41.3733 49.4007 41.6584 59.5629C48.081 61.2733 54.9228 62.9838 61.2448 60.938C62.1001 49.7864 62.3014 38.6014 61.8318 27.4163C59.2158 26.8461 56.4992 26.8629 53.8161 26.8965C50.2945 26.93 46.7563 26.9635 43.2012 26.9971Z" fill="#CAB3DA"/>
<path d="M62.4018 27.4149C62.385 27.1801 62.2341 26.9285 61.9993 26.8782C59.115 26.2913 56.1971 26.3081 53.2793 26.3416C49.9254 26.3751 46.5716 26.4087 43.2178 26.4254C40.9874 26.4925 40.2161 27.4316 40.2665 29.6284C40.3671 32.9487 40.4509 36.269 40.5515 39.6061C40.736 46.2467 40.9371 52.904 41.1216 59.5447C41.1216 59.7962 41.2894 60.0142 41.5241 60.0813C47.9803 61.8085 54.8053 63.4854 61.3956 61.4564C61.6472 61.3725 61.7813 61.1713 61.7981 60.9197C62.6533 49.785 62.8545 38.5999 62.4018 27.4149ZM60.7416 60.5173C54.5873 62.2781 48.2486 60.7353 42.2284 59.1254C42.0775 53.7928 41.9265 48.4602 41.7756 43.1276C41.6918 40.3942 41.6247 37.6609 41.5408 34.9108C41.5073 33.5357 41.457 32.1773 41.4234 30.8023C41.4067 30.2153 41.3899 29.6284 41.3732 29.0415C41.3396 27.8844 42.2787 27.5658 43.2345 27.5323C46.2195 27.4987 49.2044 27.482 52.1894 27.4484C55.2413 27.4149 58.3268 27.3143 61.3453 27.8677C61.731 38.7677 61.5465 49.6508 60.7416 60.5173Z" fill="#2F3F47"/>
<path opacity="0.2" d="M52.9451 57.9236C53.096 57.6888 53.1799 57.4373 53.2637 57.1858C53.3643 56.8336 53.4481 56.4646 53.381 56.0957C53.3307 55.8106 53.1799 55.5591 53.0289 55.2908C52.9786 55.207 52.9283 55.1064 52.878 55.0226C52.7941 54.8884 52.7271 54.7375 52.6097 54.6201C52.3246 54.3015 51.8719 54.2008 51.4526 54.117C51.1508 54.0667 50.8489 54.0164 50.5303 54.0499C49.8428 54.1338 49.2558 54.6536 49.0211 55.3076C48.7863 55.9448 48.8702 56.6827 49.1552 57.3032C49.5242 58.0913 50.2788 58.7454 51.1508 58.8124C51.8719 58.8627 52.5762 58.5105 52.9451 57.9236Z" fill="#272525"/>
<path d="M52.4547 57.8221C52.6056 57.5873 52.6895 57.3357 52.7733 57.0842C52.8739 56.732 52.9578 56.3631 52.8907 55.9942C52.8404 55.7091 52.6895 55.4576 52.5553 55.1893C52.505 55.1054 52.4547 55.0049 52.4044 54.921C52.3206 54.7869 52.2535 54.6358 52.1361 54.5185C51.851 54.1998 51.3982 54.0993 50.979 54.0154C50.6771 53.9651 50.3753 53.9148 50.0567 53.9484C49.3692 54.0322 48.7822 54.5521 48.5474 55.2061C48.3127 55.8601 48.3965 56.5811 48.6816 57.2016C49.0505 57.9898 49.8052 58.6437 50.6772 58.7108C51.3815 58.7778 52.0858 58.409 52.4547 57.8221Z" fill="#83959E"/>
<path opacity="0.2" d="M51.0949 56.7292C51.229 56.5447 51.2458 56.3267 51.2458 56.1087C51.2458 56.0416 51.2458 55.9578 51.2291 55.8907C51.1955 55.7901 51.1117 55.7063 51.011 55.6392C50.726 55.4548 50.3235 55.438 50.0216 55.6224C49.7365 55.8069 49.5689 56.2093 49.6863 56.5279C49.8708 56.7292 50.0887 56.8969 50.357 56.9639C50.6253 57.0143 50.9272 56.9472 51.0949 56.7292Z" fill="black"/>
<path opacity="0.2" d="M53.0963 82.3689C53.2472 82.1342 53.3311 81.8826 53.4149 81.6311C53.5155 81.2789 53.5994 80.91 53.5323 80.541C53.482 80.256 53.3311 80.0045 53.1969 79.7361C53.1466 79.6523 53.0963 79.5516 53.046 79.4678C52.9622 79.3336 52.8951 79.1827 52.7777 79.0653C52.4926 78.7467 52.0398 78.6461 51.6206 78.5623C51.3187 78.512 51.0169 78.4617 50.6983 78.4952C50.0108 78.5791 49.4238 79.0989 49.189 79.7529C48.9543 80.3902 49.0381 81.128 49.3232 81.7485C49.6921 82.5366 50.4468 83.1906 51.3188 83.2576C52.0063 83.3247 52.7274 82.9726 53.0963 82.3689Z" fill="#272525"/>
<path d="M52.6072 82.2831C52.7581 82.0483 52.842 81.7968 52.9258 81.5452C53.0264 81.1931 53.1103 80.8241 53.0432 80.4552C52.9929 80.1701 52.842 79.9186 52.691 79.6503C52.6407 79.5665 52.5904 79.4658 52.5401 79.3819C52.4562 79.2478 52.3892 79.0969 52.2718 78.9795C51.9867 78.6609 51.534 78.5603 51.1147 78.4764C50.8129 78.4261 50.5111 78.3757 50.1924 78.4093C49.5049 78.4931 48.9179 79.013 48.6832 79.667C48.4484 80.3042 48.5323 81.0421 48.8174 81.6625C49.1863 82.4507 49.9409 83.1047 50.8129 83.1718C51.5172 83.2221 52.2383 82.87 52.6072 82.2831Z" fill="#83959E"/>
<path opacity="0.2" d="M51.2502 81.1902C51.3844 81.0057 51.3843 80.7877 51.4011 80.5697C51.4011 80.5027 51.4011 80.4188 51.3843 80.3517C51.3508 80.2511 51.267 80.1672 51.1664 80.1001C50.8813 79.9157 50.4788 79.8989 50.177 80.0834C49.8919 80.2678 49.7242 80.6704 49.8416 80.989C50.026 81.1902 50.2441 81.3579 50.5124 81.425C50.7639 81.4753 51.0825 81.4082 51.2502 81.1902Z" fill="black"/>
<path d="M75.829 59.625C76.047 59.2561 76.265 58.8871 76.6172 58.6523C76.9023 58.4679 77.2377 58.4176 77.573 58.3505C78.9817 58.1325 80.407 58.0319 81.8324 58.0487C82.7715 58.971 83.5764 60.0442 84.2136 61.2013C84.331 61.4193 84.4484 61.654 84.4484 61.8888C84.4484 62.0733 84.3646 62.2577 84.2807 62.4422C83.3417 64.4377 82.4025 66.4165 81.4634 68.412C80.6585 68.3785 79.8536 68.2276 79.0654 67.976C79.602 66.7686 80.1555 65.5445 80.6921 64.3371C81.2119 63.1801 81.715 61.7546 80.9604 60.7317C79.9877 60.7988 79.0151 60.8659 78.0257 60.9329C77.858 60.9497 77.6736 60.9497 77.5395 61.0335C77.355 61.1342 77.2544 61.3187 77.1538 61.5031C76.5333 62.6267 76.0135 63.8004 75.5775 64.9911C75.0073 64.7227 74.4539 64.4377 73.8838 64.1694C74.1353 62.5428 74.9905 61.0671 75.829 59.625Z" fill="#2F3F47"/>
<path d="M83.3924 59.1757C83.4428 59.1422 83.4763 59.0752 83.5098 59.0081C83.8285 58.287 84.1471 57.5491 84.4657 56.828C83.3254 56.3249 82.1515 55.9057 80.9441 55.5703C80.6255 56.174 80.3907 56.7945 80.2063 57.4485C80.1727 57.5826 80.1392 57.7503 80.223 57.8677C80.2733 57.9515 80.3572 57.9851 80.441 58.0354C81.2963 58.4882 82.1851 58.8571 83.1074 59.159C83.1912 59.1925 83.3086 59.226 83.3924 59.1757Z" fill="#2F3F47"/>
<path d="M85.1539 56.426C86.093 55.3695 86.1266 52.0828 86.3613 50.7916C86.6799 49.0476 87.0153 47.2701 86.9314 45.4925C86.8476 43.715 86.3445 41.9039 85.1707 40.5624C84.4999 39.8077 83.6615 39.2208 82.7727 38.7345C80.1232 37.2252 77.1383 36.3197 74.103 36.1017C73.8683 36.0849 73.5999 36.0849 73.3986 36.2023C73.1806 36.3365 73.0801 36.6048 73.013 36.8563C72.6944 37.8122 72.3087 38.8351 72.1577 39.8245C71.9062 41.5685 71.6379 41.0151 72.8118 41.7697C73.7005 42.3399 75.5787 42.3734 76.6519 42.8262C77.8928 43.3628 79.0667 44.0503 80.2237 44.7211C80.9616 45.1571 81.7498 45.6434 82.0348 46.4483C82.1858 46.8843 82.1522 47.3706 82.1187 47.8402C81.9007 50.6238 81.5318 53.3908 80.9784 56.1242C80.8778 56.5937 84.4329 57.013 85.003 56.5937C85.0366 56.5434 85.0868 56.4931 85.1539 56.426Z" fill="#CAB3DA"/>
<g opacity="0.15">
<path opacity="0.15" d="M82.2206 39.4593C81.8014 41.0692 81.0972 42.4778 80.1748 43.8529C79.9904 44.1212 80.3257 44.4231 80.5605 44.1883C81.8517 42.9474 82.707 41.3543 83.2101 39.6606C83.3945 39.0233 82.3883 38.8221 82.2206 39.4593Z" fill="#272525"/>
<path opacity="0.15" d="M84.6048 41.1067C84.0011 42.6327 83.1124 43.5383 81.7709 44.4439C81.5864 44.5613 81.7373 44.863 81.9386 44.7792C82.7938 44.4438 83.5652 44.2761 84.2527 43.6221C84.89 43.0184 85.3931 42.2974 85.6446 41.4589C85.8291 40.872 84.8228 40.5366 84.6048 41.1067Z" fill="#272525"/>
</g>
<defs>
<linearGradient id="paint0_linear_1_1264" x1="36.3803" y1="110.813" x2="92.8235" y2="110.813" gradientUnits="userSpaceOnUse">
<stop stop-color="#4D4D4D"/>
<stop offset="1"/>
</linearGradient>
<linearGradient id="paint1_linear_1_1264" x1="36.3769" y1="110.813" x2="92.8201" y2="110.813" gradientUnits="userSpaceOnUse">
<stop/>
<stop offset="1"/>
</linearGradient>
</defs>
</svg>
